# xmcd
# Track frame offsets:
# 150
# 19169
# 35601
# 52631
# 68413
# 87019
# 103854
# 121687
# 137209
#
# Disc length: 2085 seconds
# Revision: 0
# Processed by: cddbd v1.5.1PL0 Copyright (c) Steve Scherf et al.
# Submitted via: VisiTrax 2.9.10.228 - For more info visit www.synapsa.com
#
DISCID=68082309
DTITLE=Various Artist - Hits Monthly Nashville  PHN0205
DYEAR=1900
DGENRE=Karaoke
TTITLE0=Jackson, Alan - Drive (For Daddy Gene)
TTITLE1=Brooks, Garth and Trisha - Squeeze Me In
TTITLE2=Strait, George - Living And Living Well
TTITLE3=Chesnutt, Mark - She Was
TTITLE4=Evans, Sara - I Keep Looking
TTITLE5=McEntire, Reba - Sweet Music Man
TTITLE6=Adkins, Trace - Help Me Understand
TTITLE7=Azar, Steve - I Don't Have To Be Me
TTITLE8=Coffey, Kellie - When You Lie Next To Me
EXTD=
EXTT0=
EXTT1=
EXTT2=
EXTT3=
EXTT4=
EXTT5=
EXTT6=
EXTT7=
EXTT8=
PLAYORDER=
